<?xml version="1.0" encoding="utf-8"?>
<!-- Generator: Adobe Illustrator 22.1.0, SVG Export Plug-In . SVG Version: 6.00 Build 0)  -->
<svg version="1.1" id="Layer_1" xmlns="http://www.w3.org/2000/svg" xmlns:xlink="http://www.w3.org/1999/xlink" x="0px" y="0px"
	 viewBox="0 0 1015.1 207.6" style="enable-background:new 0 0 1015.1 207.6;" xml:space="preserve">
<style type="text/css">
	.cobm{fill:url(#SVGID_1_);}
	.cobm1{opacity:0.55;fill:url(#SVGID_2_);enable-background:new    ;}
	.cobm2{opacity:0.55;fill:url(#SVGID_3_);enable-background:new    ;}
	.cobm-text{fill:#121212;}
</style>
<g>
	<g>
		<g>
			<path class="cobm-text" d="M246.6,94.4c2.5-2.5,5.4-4.4,8.9-5.8c3.5-1.5,7.3-2.1,11.4-2.1c4.2,0,8.1,0.8,11.7,2.3c3.5,1.7,6.7,4,9.6,7.1l9.6-8.9
				c-3.5-4.4-8.1-7.7-13.5-10c-5.4-2.3-11.4-3.3-17.9-3.3c-6,0-11.7,0.8-16.9,2.9c-5.2,2.1-9.6,4.8-13.5,8.5
				c-3.7,3.5-6.9,7.9-8.9,12.9s-3.1,10.6-3.1,16.4c0,6,1,11.4,3.1,16.4c2.1,5,5.2,9.2,8.9,12.9c3.7,3.7,8.3,6.4,13.5,8.5
				c5.2,1.9,10.8,2.9,16.9,2.9c6.7,0,12.5-1,17.9-2.9c5.2-2.1,9.8-5.4,13.5-9.8l-9.6-9.2c-2.7,3.1-6,5.6-9.6,7.1s-7.5,2.3-11.7,2.3
				c-4.2,0-7.9-0.6-11.4-2.1c-3.3-1.5-6.4-3.3-8.9-5.8c-2.5-2.5-4.4-5.6-5.8-8.9c-1.5-3.3-2.1-7.1-2.1-11.2s0.6-7.9,2.1-11.2
				C242.1,99.8,244.1,96.9,246.6,94.4z"/>
			<path class="cobm-text" d="M381.7,85.2c-3.7-3.5-8.3-6.4-13.5-8.5c-5.2-2.1-10.8-3.1-17.1-3.1c-6.2,0-11.9,1-17.1,3.1c-5.2,2.1-9.6,4.8-13.5,8.5
				c-3.7,3.5-6.9,7.9-8.9,12.9s-3.1,10.4-3.1,16.2c0,5.8,1,11.2,3.1,16.2c2.1,5,5,9.2,8.9,12.9c3.7,3.5,8.3,6.4,13.5,8.5
				c5.2,2.1,10.8,3.1,17.1,3.1c6,0,11.9-1,17.1-2.9c5.2-2.1,9.6-5,13.5-8.5c3.7-3.5,6.9-7.9,8.9-12.9s3.1-10.6,3.1-16.4
				c0-5.8-1-11.2-3.1-16.2C388.5,93.1,385.6,89,381.7,85.2z M376.7,125.4c-1.5,3.5-3.3,6.4-5.8,8.9c-2.5,2.5-5.6,4.4-8.9,5.8
				c-3.3,1.5-7.1,2.1-11,2.1c-4,0-7.7-0.6-11-2.3c-3.5-1.2-6.4-3.3-8.9-5.8c-2.5-2.5-4.4-5.6-5.8-8.9c-1.5-3.3-2.1-7.1-2.1-11
				c0-4.2,0.6-7.9,2.1-11.2c1.2-3.5,3.3-6.4,5.8-8.9c2.7-2.5,5.6-4.4,8.9-5.8c3.3-1.5,7.1-2.1,11-2.1c4,0,7.7,0.6,11,2.1
				c3.5,1.2,6.4,3.3,8.9,5.8c2.5,2.7,4.4,5.6,5.8,8.9c1.5,3.3,2.1,7.1,2.1,11.2S378.1,122,376.7,125.4z"/>
			<path class="cobm-text" d="M472,113.7c-0.9-0.4-1.8-0.8-2.8-1.1c3.1-1.6,5.6-3.8,7.4-6.6c1.9-2.9,2.9-6.7,2.9-10.8c0-6.2-2.5-11.2-7.5-15
				s-12.3-5.6-21.8-5.6h-37.2v79.3h39.5c10.4,0,18.1-1.9,23.3-5.6c5.2-3.7,7.9-8.9,7.9-15.8c0-4.8-1-8.5-3.1-11.7
				C478.4,117.7,475.5,115.4,472,113.7z M448.4,86.2c5.2,0,9.2,0.8,11.9,2.7c2.7,1.9,4.2,4.6,4.2,8.3c0,3.5-1.5,6.2-4.2,8.1
				c-2.7,1.9-6.7,2.7-11.9,2.7h-20.8V86.2H448.4z M464.1,139.7c-2.9,1.9-7.1,2.7-12.7,2.7h-23.7v-22.9h23.7c5.4,0,9.8,0.8,12.7,2.7
				c2.9,1.9,4.4,4.8,4.4,8.7C468.4,134.9,467,137.8,464.1,139.7z"/>
			<polygon class="cobm-text" points="577,74.6 546.1,127.2 514.6,74.6 502.5,74.6 502.5,154.1 516.1,154.1 516.1,101.9 542.3,144.9 548.9,144.9 
				575.2,101.3 575.4,154.1 589.3,154.1 589.1,74.6 			"/>
			<rect class="cobm-text" x="614.5" y="74.6" width="14.8" height="79.5"/>
			<polygon class="cobm-text" points="709.8,128.3 666.1,74.6 654,74.6 654,154.1 668.6,154.1 668.6,100.3 712.2,154.1 724.3,154.1 724.3,74.6 
				709.8,74.6 			"/>
			<path class="cobm-text" d="M806.7,79.6c-6.4-3.3-14.1-5-22.7-5h-34.7v79.5H784c8.5,0,16.2-1.7,22.7-5s11.7-7.9,15.2-13.9c3.5-5.8,5.4-12.9,5.4-20.8
				s-1.9-15-5.4-20.8C818.4,87.5,813.1,82.9,806.7,79.6z M809,128.7c-2.5,4.2-5.8,7.3-10.2,9.6c-4.2,2.3-9.4,3.3-15.4,3.3h-19.3
				V87.1h19.3c5.8,0,11,1,15.4,3.3c4.4,2.3,7.9,5.6,10.2,9.6c2.3,4,3.5,8.7,3.5,14.4C812.5,119.7,811.5,124.5,809,128.7z"/>
			<polygon class="cobm-text" points="861.2,119.7 899.5,119.7 899.5,107.7 861.2,107.7 861.2,86.7 904.5,86.7 904.5,74.4 846.4,74.4 846.4,153.9 
				905.9,153.9 905.9,141.6 861.2,141.6 			"/>
			<polygon class="cobm-text" points="992.1,154.1 962.2,113 990,74.6 974,74.6 953.9,102.8 933.6,74.6 917,74.6 944.8,113.6 915.3,154.1 915.3,154.1 
				932.2,154.1 953.4,123.8 975,154.1 			"/>
		</g>
		
			<linearGradient id="SVGID_1_" gradientUnits="userSpaceOnUse" x1="-1724.4835" y1="-3919.9592" x2="-1672.8756" y2="-4112.563" gradientTransform="matrix(-0.7071 -0.7071 -0.7071 0.7071 -3936.5281 1744.3206)">
			<stop  offset="0" style="stop-color:#E72144"/>
			<stop  offset="0.9994" style="stop-color:#76549E"/>
		</linearGradient>
		<path class="cobm" d="M11.9,126.1V85c0-39.2,32.1-71.3,71.3-71.3h42.7c39.2,0,71.3,32.1,71.3,71.3v41c0,39.2-32.1,71.3-71.3,71.3
			H83.2C44,197.4,11.9,165.3,11.9,126.1z"/>
		<g>
			
				<linearGradient id="SVGID_2_" gradientUnits="userSpaceOnUse" x1="-3540.2566" y1="226.927" x2="-3348.1907" y2="226.927" gradientTransform="matrix(-0.4174 0.4174 -0.7071 -0.7071 -1148.3535 1712.783)">
				<stop  offset="0" style="stop-color:#EAEAEA"/>
				<stop  offset="0.2678" style="stop-color:#EBE8EB"/>
				<stop  offset="1" style="stop-color:#EDF3F7"/>
			</linearGradient>
			<path class="cobm1" d="M123.6,154.8l45.3-45.3c9.6-9.6,9.6-25.3,0-34.9l0,0c-9.6-9.6-25.3-9.6-34.9,0l-45.3,45.3
				c-9.6,9.6-9.6,25.3,0,34.9l0,0C98.3,164.4,114.1,164.4,123.6,154.8z"/>
			
				<linearGradient id="SVGID_3_" gradientUnits="userSpaceOnUse" x1="-2872.6677" y1="621.0038" x2="-2680.6018" y2="621.0038" gradientTransform="matrix(0.4174 0.4174 0.7071 -0.7071 802.9146 1712.783)">
				<stop  offset="0" style="stop-color:#EAEAEA"/>
				<stop  offset="0.2678" style="stop-color:#EBE8EB"/>
				<stop  offset="1" style="stop-color:#EDF3F7"/>
			</linearGradient>
			<path class="cobm2" d="M88.2,154.8L43,109.5c-9.6-9.6-9.6-25.3,0-34.9l0,0c9.6-9.6,25.3-9.6,34.9,0l45.3,45.3
				c9.6,9.6,9.6,25.3,0,34.9l0,0C113.6,164.4,97.8,164.4,88.2,154.8z"/>
		</g>
	</g>
</g>
</svg>
